# xmcd CD database file
#
# Track frame offsets:
#	150
#	21750
#	48340
#	66603
#	90378
#	114075
#	157453
#	192220
#	216575
#	243408
#
# Disc length: 3645 seconds
#
# Revision: 0
# Processed by: cddbd v1.5PL3 Copyright (c) Steve Scherf et al.
# Submitted via: cdripper 1.0.7
#
DISCID=8e0e3b0a
DTITLE=Talib Kibwe - Introducing Talib Kibwe
DYEAR=1996
DGENRE=Jazz
TTITLE0=Is That So?
TTITLE1=Joy Spring
TTITLE2=Heaven Scent
TTITLE3=Hot House
TTITLE4=The Lady in White
TTITLE5=Hi-Fly
TTITLE6=Kim
TTITLE7=Blues from Jali
TTITLE8=Portrait of Lois Marie
TTITLE9=Star Eyes
EXTD=YEAR: 1996
EXTT0=
EXTT1=
EXTT2=
EXTT3=
EXTT4=
EXTT5=
EXTT6=
EXTT7=
EXTT8=
EXTT9=
PLAYORDER=
